<?xml version="1.0" encoding="UTF-8"?>
<!DOCTYPE svg PUBLIC "-//W3C//DTD SVG 1.1//EN" "http://www.w3.org/Graphics/SVG/1.1/DTD/svg11.dtd">
<svg xmlns="http://www.w3.org/2000/svg" version="1.1" width="286px" height="300px" style="shape-rendering:geometricPrecision; text-rendering:geometricPrecision; image-rendering:optimizeQuality; fill-rule:evenodd; clip-rule:evenodd" xmlns:xlink="http://www.w3.org/1999/xlink">
<g><path style="opacity:0.974" fill="#fece66" d="M 129.5,-0.5 C 137.167,-0.5 144.833,-0.5 152.5,-0.5C 190.197,12.5516 204.03,38.5516 194,77.5C 191.649,82.8795 188.816,87.8795 185.5,92.5C 184.833,92.5 184.5,92.8333 184.5,93.5C 183.833,93.5 183.5,93.8333 183.5,94.5C 161.17,115.284 136.503,118.451 109.5,104C 85.4116,85.7305 78.2449,62.2305 88,33.5C 96.6277,15.6962 110.461,4.36291 129.5,-0.5 Z M 138.5,5.5 C 165.69,6.66788 182.857,20.3345 190,46.5C 192.869,76.9501 179.703,96.4501 150.5,105C 115.201,107.366 95.2014,91.0326 90.5,56C 92.0912,32.1357 104.091,16.1357 126.5,8C 130.637,7.16058 134.637,6.32725 138.5,5.5 Z M 135.5,38.5 C 148.617,36.9655 156.284,42.6321 158.5,55.5C 156.413,70.4153 148.08,75.9153 133.5,72C 123.784,66.3713 120.95,58.2047 125,47.5C 127.468,43.1987 130.968,40.1987 135.5,38.5 Z"/></g>
<g><path style="opacity:0.969" fill="#fecd66" d="M 143.5,11.5 C 144.675,11.281 145.675,11.6143 146.5,12.5C 145.206,14.8805 144.206,17.3805 143.5,20C 145.613,21.8372 147.446,24.0039 149,26.5C 149.176,29.8818 149.676,33.2152 150.5,36.5C 151.167,36.1667 151.833,35.8333 152.5,35.5C 153.484,32.5719 153.817,29.5719 153.5,26.5C 160.81,23.614 167.977,23.9473 175,27.5C 175.167,27.8333 175.333,28.1667 175.5,28.5C 172.93,29.7018 170.43,31.0352 168,32.5C 167.667,35.5 167.333,38.5 167,41.5C 164.833,43.6667 162.667,45.8333 160.5,48C 162.272,49.4868 164.272,49.8201 166.5,49C 167.726,47.3651 169.059,45.8651 170.5,44.5C 178.875,47.3591 183.708,53.0258 185,61.5C 182.291,60.2078 179.458,59.2078 176.5,58.5C 174.334,60.4933 172.001,62.3267 169.5,64C 166.518,64.498 163.518,64.6646 160.5,64.5C 160.33,65.8221 160.663,66.9887 161.5,68C 164.089,69.6573 166.756,69.9906 169.5,69C 173.348,75.7861 173.348,82.6194 169.5,89.5C 168.833,90.8333 168.167,90.8333 167.5,89.5C 166.543,87.0824 165.209,84.9157 163.5,83C 161.5,83 159.5,83 157.5,83C 154.081,81.4143 151.081,79.2476 148.5,76.5C 147.5,76.8333 146.833,77.5 146.5,78.5C 147.239,81.7179 148.906,84.2179 151.5,86C 149.165,93.5159 144.165,98.3492 136.5,100.5C 136.167,100.167 135.833,99.8333 135.5,99.5C 136.58,96.6682 137.58,93.8349 138.5,91C 136.376,89.8783 134.543,88.3783 133,86.5C 132.793,82.9106 132.293,79.4106 131.5,76C 130.551,75.3828 129.718,75.5494 129,76.5C 127.349,78.7544 127.182,81.0878 128.5,83.5C 125.638,86.2905 122.138,87.6239 118,87.5C 113.627,87.4325 109.793,86.0992 106.5,83.5C 109.421,82.4569 111.921,80.7903 114,78.5C 113.008,75.4302 113.341,72.4302 115,69.5C 117.018,67.6499 118.851,65.6499 120.5,63.5C 117.119,61.8798 114.453,62.7132 112.5,66C 107.775,66.2224 103.942,64.3891 101,60.5C 98.5095,57.5349 97.1762,54.2016 97,50.5C 99.5724,51.6916 102.239,52.6916 105,53.5C 106.837,51.3874 109.004,49.5541 111.5,48C 114.482,47.502 117.482,47.3354 120.5,47.5C 120.714,45.8561 120.38,44.3561 119.5,43C 116.774,42.8184 114.107,42.3184 111.5,41.5C 108.885,35.1934 108.885,28.86 111.5,22.5C 112.274,21.2888 113.107,21.2888 114,22.5C 115.08,24.9962 116.414,27.3295 118,29.5C 120.401,28.3977 122.901,28.231 125.5,29C 128.16,30.8274 130.494,32.9941 132.5,35.5C 133.881,35.0004 134.547,34.0004 134.5,32.5C 133.416,29.912 131.749,27.7454 129.5,26C 132.341,19.3264 137.008,14.4931 143.5,11.5 Z M 135.5,38.5 C 130.968,40.1987 127.468,43.1987 125,47.5C 120.95,58.2047 123.784,66.3713 133.5,72C 148.08,75.9153 156.413,70.4153 158.5,55.5C 156.284,42.6321 148.617,36.9655 135.5,38.5 Z"/></g>
<g><path style="opacity:1" fill="#fecc66" d="M 139.5,39.5 C 155.749,42.6651 160.249,51.6651 153,66.5C 143.765,73.6608 135.098,72.9941 127,64.5C 122.138,51.5579 126.304,43.2246 139.5,39.5 Z"/></g>
<g><path style="opacity:0.918" fill="#1c92cb" d="M 285.5,121.5 C 285.5,127.5 285.5,133.5 285.5,139.5C 277.069,172.587 255.736,188.587 221.5,187.5C 220.5,187.5 219.5,187.5 218.5,187.5C 218.158,186.662 217.492,186.328 216.5,186.5C 215.833,186.5 215.167,186.5 214.5,186.5C 213.432,185.566 212.099,185.232 210.5,185.5C 177.739,170.638 165.906,145.638 175,110.5C 177.604,104.954 180.437,99.621 183.5,94.5C 184.167,94.5 184.5,94.1667 184.5,93.5C 185.167,93.5 185.5,93.1667 185.5,92.5C 210.122,69.8648 236.456,67.6982 264.5,86C 275.273,95.7283 282.273,107.562 285.5,121.5 Z M 224.5,80.5 C 253.614,80.9556 271.447,95.289 278,123.5C 279.805,153.412 266.305,172.246 237.5,180C 211.065,182.786 192.398,172.119 181.5,148C 174.402,122.957 181.402,102.957 202.5,88C 209.587,84.3608 216.92,81.8608 224.5,80.5 Z M 243.5,136.5 C 248.921,137.092 251.921,140.259 252.5,146C 250.955,151.676 247.788,152.843 243,149.5C 240.965,145.059 241.132,140.726 243.5,136.5 Z"/></g>
<g><path style="opacity:0.914" fill="#1ccb40" d="M 76.5,187.5 C 75.5084,187.328 74.8417,187.662 74.5,188.5C 74.1667,188.5 73.8333,188.5 73.5,188.5C 72.209,188.263 71.209,188.596 70.5,189.5C 38.5337,194.768 15.7004,182.768 2,153.5C 1.21774,150.69 0.384409,148.023 -0.5,145.5C -0.5,137.833 -0.5,130.167 -0.5,122.5C 8.72031,91.2081 29.7203,76.0414 62.5,77C 95.8444,84.0059 112.678,104.506 113,138.5C 110.022,161.831 97.8554,178.164 76.5,187.5 Z M 53.5,83.5 C 80.905,84.4133 98.0717,98.0799 105,124.5C 107.872,154.942 94.7058,174.442 65.5,183C 30.2272,185.396 10.2272,169.062 5.5,134C 8.81687,104.855 24.8169,88.0214 53.5,83.5 Z M 65.5,124.5 C 68.0182,125.759 67.8515,127.093 65,128.5C 64.805,127.181 64.9717,125.847 65.5,124.5 Z M 44.5,125.5 C 47.1139,126.264 48.2805,127.93 48,130.5C 45.4438,129.781 44.2771,128.114 44.5,125.5 Z M 71.5,134.5 C 73.7453,134.541 74.4119,135.375 73.5,137C 66.6802,139.377 66.0135,138.543 71.5,134.5 Z M 39.5,136.5 C 42.5158,136.841 45.1825,138.007 47.5,140C 45.1546,140.17 42.8212,139.837 40.5,139C 39.7476,138.329 39.4142,137.496 39.5,136.5 Z"/></g>
<g><path style="opacity:0.988" fill="#1c91c9" d="M 239.5,87.5 C 240.043,87.56 240.376,87.8933 240.5,88.5C 237.96,96.084 237.46,103.751 239,111.5C 245.399,118.632 251.065,126.299 256,134.5C 261.936,154.127 255.103,166.96 235.5,173C 214.87,175.692 202.703,166.858 199,146.5C 198.216,137.212 200.216,128.545 205,120.5C 214.062,106.937 225.562,95.9375 239.5,87.5 Z M 243.5,136.5 C 241.132,140.726 240.965,145.059 243,149.5C 247.788,152.843 250.955,151.676 252.5,146C 251.921,140.259 248.921,137.092 243.5,136.5 Z"/></g>
<g><path style="opacity:0.981" fill="#1cc940" d="M 49.5,93.5 C 56.5546,92.1111 62.3879,94.1111 67,99.5C 74.9967,96.4457 80.6634,98.7791 84,106.5C 85.7448,107.956 87.5781,109.289 89.5,110.5C 90.767,112.371 90.767,114.204 89.5,116C 95.9485,119.711 97.6152,124.877 94.5,131.5C 99.9435,141.616 96.7769,147.283 85,148.5C 81.6621,146.957 78.1621,145.957 74.5,145.5C 63.8309,149.04 62.8309,154.54 71.5,162C 74.2179,163.072 76.8845,164.238 79.5,165.5C 76.9135,166.48 74.2469,166.813 71.5,166.5C 71.2924,168.92 71.6258,171.253 72.5,173.5C 72,173.833 71.5,174.167 71,174.5C 66.4121,172.137 61.5788,170.471 56.5,169.5C 52.6137,170.11 49.2804,171.776 46.5,174.5C 45.7792,172.314 45.1125,170.147 44.5,168C 41.6229,166.873 38.6229,166.206 35.5,166C 40.5368,164.984 44.7035,162.484 48,158.5C 50.9505,153.074 49.6172,149.408 44,147.5C 38.5901,149.47 33.0901,151.137 27.5,152.5C 18.7872,151.632 14.6205,146.965 15,138.5C 15.7845,136.714 16.9512,135.214 18.5,134C 13.7976,127.756 14.7976,122.589 21.5,118.5C 21.1507,104.992 27.3174,99.9916 40,103.5C 41.3333,101.5 42.6667,99.5 44,97.5C 46.0153,96.3034 47.8487,94.9701 49.5,93.5 Z M 65.5,124.5 C 64.9717,125.847 64.805,127.181 65,128.5C 67.8515,127.093 68.0182,125.759 65.5,124.5 Z M 44.5,125.5 C 44.2771,128.114 45.4438,129.781 48,130.5C 48.2805,127.93 47.1139,126.264 44.5,125.5 Z M 71.5,134.5 C 66.0135,138.543 66.6802,139.377 73.5,137C 74.4119,135.375 73.7453,134.541 71.5,134.5 Z M 39.5,136.5 C 39.4142,137.496 39.7476,138.329 40.5,139C 42.8212,139.837 45.1546,140.17 47.5,140C 45.1825,138.007 42.5158,136.841 39.5,136.5 Z"/></g>
<g><path style="opacity:0.846" fill="#fe6700" d="M 148.5,238.5 C 148.5,241.5 148.5,244.5 148.5,247.5C 144.754,275.238 129.421,292.571 102.5,299.5C 94.8333,299.5 87.1667,299.5 79.5,299.5C 47.0787,289.547 32.2454,267.547 35,233.5C 39.5029,212.782 51.3362,198.116 70.5,189.5C 71.791,189.737 72.791,189.404 73.5,188.5C 73.8333,188.5 74.1667,188.5 74.5,188.5C 75.4916,188.672 76.1583,188.338 76.5,187.5C 109.871,181.765 133.038,194.432 146,225.5C 147.314,229.754 148.147,234.087 148.5,238.5 Z M 81.5,193.5 C 103.723,190.837 121.223,198.504 134,216.5C 146.917,242.581 142.417,265.081 120.5,284C 99.1878,296.921 78.5211,295.921 58.5,281C 39.669,261.839 36.5023,240.339 49,216.5C 56.8271,204.51 67.6604,196.843 81.5,193.5 Z M 107.5,232.5 C 112.757,235.35 113.757,239.35 110.5,244.5C 109.262,241.832 109.262,239.166 110.5,236.5C 108.675,235.429 107.508,236.096 107,238.5C 106.82,236.512 106.986,234.512 107.5,232.5 Z M 99.5,248.5 C 99.9725,250.97 99.1392,253.304 97,255.5C 96.5,255 96,254.5 95.5,254C 96.6647,252.008 97.998,250.175 99.5,248.5 Z"/></g>
<g><path style="opacity:1" fill="#635f57" d="M 210.5,185.5 C 211.568,186.434 212.901,186.768 214.5,186.5C 215.167,186.5 215.833,186.5 216.5,186.5C 216.842,187.338 217.508,187.672 218.5,187.5C 219.5,187.5 220.5,187.5 221.5,187.5C 254.216,200.588 267.383,224.588 261,259.5C 253.307,280.364 238.807,293.698 217.5,299.5C 209.833,299.5 202.167,299.5 194.5,299.5C 168.173,291.842 152.84,274.509 148.5,247.5C 148.5,244.5 148.5,241.5 148.5,238.5C 154.929,204.417 175.595,186.751 210.5,185.5 Z M 196.5,193.5 C 231.736,191.572 251.736,208.072 256.5,243C 251.537,278.642 231.203,294.975 195.5,292C 166.653,283.136 153.82,263.636 157,233.5C 162.339,212.328 175.506,198.994 196.5,193.5 Z M 179.5,231.5 C 190.163,229.69 195.997,234.024 197,244.5C 196.25,245.126 195.416,245.626 194.5,246C 187.751,246.877 181.084,246.544 174.5,245C 173.188,239.424 174.855,234.924 179.5,231.5 Z M 223.5,231.5 C 233.536,230.394 238.036,234.727 237,244.5C 229.989,248.026 222.822,248.36 215.5,245.5C 213.523,238.15 216.19,233.483 223.5,231.5 Z M 202.5,249.5 C 202.804,252.522 203.304,255.522 204,258.5C 206.557,259.646 207.89,258.646 208,255.5C 208.333,253.167 208.667,250.833 209,248.5C 210.476,253.076 210.81,257.743 210,262.5C 207.199,261.205 204.366,261.205 201.5,262.5C 200.16,257.927 200.493,253.594 202.5,249.5 Z"/></g>
<g><path style="opacity:0.935" fill="#fe6600" d="M 88.5,200.5 C 101.886,200.662 112.053,206.328 119,217.5C 119.186,215.1 119.686,212.766 120.5,210.5C 122.742,214.91 125.575,218.91 129,222.5C 136.013,238.793 131.847,251.293 116.5,260C 118.167,260.667 119.833,260.667 121.5,260C 125.431,256.798 129.764,255.964 134.5,257.5C 130.054,261.569 125.721,265.736 121.5,270C 119.2,270.658 116.867,271.158 114.5,271.5C 110.524,270.558 106.524,270.391 102.5,271C 102.043,271.414 101.709,271.914 101.5,272.5C 106.132,273.328 110.798,273.828 115.5,274C 116.308,274.308 116.975,274.808 117.5,275.5C 110.842,277.985 104.508,281.152 98.5,285C 81.6741,288.063 68.5075,282.563 59,268.5C 53.6346,251.85 59.468,241.35 76.5,237C 82.4248,236.342 88.2581,236.842 94,238.5C 106.877,236.887 109.377,231.22 101.5,221.5C 101.788,229.666 97.7881,232.499 89.5,230C 85.2871,226.723 82.7871,222.556 82,217.5C 84.152,218.885 86.4854,219.885 89,220.5C 94.6249,219.701 100.125,219.534 105.5,220C 107.286,220.785 108.786,221.951 110,223.5C 110.72,221.888 110.554,220.388 109.5,219C 107.61,217.888 105.61,217.054 103.5,216.5C 98.1947,218.714 92.8614,218.881 87.5,217C 85.981,215.649 84.6477,214.149 83.5,212.5C 85.941,213.018 88.6076,213.018 91.5,212.5C 92.754,210.741 92.4206,209.241 90.5,208C 84.9869,206.208 79.3202,205.042 73.5,204.5C 78.3807,202.441 83.3807,201.108 88.5,200.5 Z M 107.5,232.5 C 106.986,234.512 106.82,236.512 107,238.5C 107.508,236.096 108.675,235.429 110.5,236.5C 109.262,239.166 109.262,241.832 110.5,244.5C 113.757,239.35 112.757,235.35 107.5,232.5 Z M 99.5,248.5 C 97.998,250.175 96.6647,252.008 95.5,254C 96,254.5 96.5,255 97,255.5C 99.1392,253.304 99.9725,250.97 99.5,248.5 Z"/></g>
<g><path style="opacity:0.999" fill="#262522" d="M 227.5,213.5 C 229.757,213.038 231.757,212.038 233.5,210.5C 247.099,222.017 250.432,235.85 243.5,252C 238.008,254.245 232.508,256.412 227,258.5C 225.643,265.408 224.643,272.408 224,279.5C 221.859,282.321 219.025,283.654 215.5,283.5C 215.665,279.818 215.499,276.152 215,272.5C 214.667,275.167 214.333,277.833 214,280.5C 211.619,281.435 209.119,281.768 206.5,281.5C 206.665,278.15 206.498,274.817 206,271.5C 205.501,275.486 205.334,279.486 205.5,283.5C 203.076,283.808 200.743,283.474 198.5,282.5C 197.774,279.148 196.941,275.815 196,272.5C 195.827,276.541 195.327,280.541 194.5,284.5C 190.594,283.637 188.094,281.304 187,277.5C 186.917,271.058 186.251,264.725 185,258.5C 180.066,256.077 174.9,254.244 169.5,253C 167.622,251.457 166.122,249.624 165,247.5C 163.998,234.51 167.831,223.177 176.5,213.5C 177.167,215.5 177.833,217.5 178.5,219.5C 181.383,219.128 184.383,219.128 187.5,219.5C 186.063,218.275 184.396,217.275 182.5,216.5C 181.348,213.894 181.182,211.227 182,208.5C 198.636,199.023 215.136,199.19 231.5,209C 229.959,210.371 228.625,211.871 227.5,213.5 Z M 179.5,231.5 C 174.855,234.924 173.188,239.424 174.5,245C 181.084,246.544 187.751,246.877 194.5,246C 195.416,245.626 196.25,245.126 197,244.5C 195.997,234.024 190.163,229.69 179.5,231.5 Z M 223.5,231.5 C 216.19,233.483 213.523,238.15 215.5,245.5C 222.822,248.36 229.989,248.026 237,244.5C 238.036,234.727 233.536,230.394 223.5,231.5 Z M 202.5,249.5 C 200.493,253.594 200.16,257.927 201.5,262.5C 204.366,261.205 207.199,261.205 210,262.5C 210.81,257.743 210.476,253.076 209,248.5C 208.667,250.833 208.333,253.167 208,255.5C 207.89,258.646 206.557,259.646 204,258.5C 203.304,255.522 202.804,252.522 202.5,249.5 Z"/></g>
<g><path style="opacity:0.817" fill="#fe6700" d="M 69.5,207.5 C 72.5184,207.335 75.5184,207.502 78.5,208C 81.9779,210.706 82.3112,213.706 79.5,217C 75.0117,216.652 71.3451,218.152 68.5,221.5C 67.1515,219.389 67.4848,217.555 69.5,216C 69,215.833 68.5,215.667 68,215.5C 65.6028,217.285 63.1028,218.951 60.5,220.5C 61.2943,214.974 64.2943,210.641 69.5,207.5 Z"/></g>
</svg>


